<svg width="175" height="111" viewBox="0 0 175 111" fill="none" xmlns="http://www.w3.org/2000/svg">
<path d="M115.75 82.75L102.337 69.3375M53.5294 10.7714C29.7905 10.7714 10.5462 30.7971 10.5462 55.5C10.5462 80.2029 29.7904 100.229 53.5294 100.229H121.471C145.21 100.229 164.454 80.2029 164.454 55.5C164.454 30.7971 145.21 10.7714 121.471 10.7714H53.5294ZM5 55.5C5 27.6096 26.7274 5 53.5294 5H121.471C148.273 5 170 27.6096 170 55.5C170 83.3904 148.273 106 121.471 106H53.5294C26.7274 106 5 83.3904 5 55.5ZM109.583 51.9167C109.583 65.5397 98.5397 76.5833 84.9167 76.5833C71.2936 76.5833 60.25 65.5397 60.25 51.9167C60.25 38.2936 71.2936 27.25 84.9167 27.25C98.5397 27.25 109.583 38.2936 109.583 51.9167Z" stroke="#8D73FF" stroke-width="10" stroke-linecap="round" stroke-linejoin="round"/>
</svg>
