<svg width="28" height="26" viewBox="0 0 28 26" fill="none" xmlns="http://www.w3.org/2000/svg">
<path fill-rule="evenodd" clip-rule="evenodd" d="M6.84211 0C6.84211 0 7.14412 2.81891 8.3205 3.99529C9.49688 5.17167 12.3158 5.47368 12.3158 5.47368C12.3158 5.47368 9.49688 5.7757 8.3205 6.95208C7.14412 8.12846 6.84211 10.9474 6.84211 10.9474C6.84211 10.9474 6.54009 8.12846 5.36371 6.95208C4.18733 5.7757 1.36842 5.47368 1.36842 5.47368C1.36842 5.47368 4.18733 5.17167 5.36371 3.99529C6.54009 2.81891 6.84211 0 6.84211 0ZM19.1579 4.10526C19.1579 4.10526 19.6109 8.33363 21.3755 10.0982C23.1401 11.8628 27.3684 12.3158 27.3684 12.3158C27.3684 12.3158 23.1401 12.7688 21.3755 14.5334C19.6109 16.2979 19.1579 20.5263 19.1579 20.5263C19.1579 20.5263 18.7049 16.2979 16.9403 14.5334C15.1757 12.7688 10.9474 12.3158 10.9474 12.3158C10.9474 12.3158 15.1757 11.8628 16.9403 10.0982C18.7049 8.33363 19.1579 4.10526 19.1579 4.10526ZM8.69009 17.3099C7.21962 15.8394 6.84211 12.3158 6.84211 12.3158C6.84211 12.3158 6.46459 15.8394 4.99412 17.3099C3.52364 18.7804 0 19.1579 0 19.1579C0 19.1579 3.52364 19.5354 4.99412 21.0059C6.46459 22.4764 6.84211 26 6.84211 26C6.84211 26 7.21962 22.4764 8.69009 21.0059C10.1606 19.5354 13.6842 19.1579 13.6842 19.1579C13.6842 19.1579 10.1606 18.7804 8.69009 17.3099Z" fill="url(#paint0_linear_17_983)"/>
<defs>
<linearGradient id="paint0_linear_17_983" x1="1.85139" y1="2.05263" x2="28.8869" y2="4.55099" gradientUnits="userSpaceOnUse">
<stop offset="0.0695937" stop-color="#4467FF"/>
<stop offset="0.816425" stop-color="#7241FF"/>
</linearGradient>
</defs>
</svg>
